<?xml version="1.0" standalone="no"?>
<!DOCTYPE svg PUBLIC "-//W3C//DTD SVG 20010904//EN"
 "http://www.w3.org/TR/2001/REC-SVG-20010904/DTD/svg10.dtd">
<svg version="1.0" xmlns="http://www.w3.org/2000/svg"
 width="400.000000pt" height="400.000000pt" viewBox="0 0 400.000000 400.000000"
 preserveAspectRatio="xMidYMid meet">
<metadata>
Created by potrace 1.14, written by Peter Selinger 2001-2017
</metadata>
<g transform="translate(0.000000,400.000000) scale(0.100000,-0.100000)"
fill="#000000" stroke="none">
<path d="M1076 2767 c-33 -52 -136 -228 -136 -232 0 -3 -11 -24 -26 -46 -14
-22 -34 -57 -46 -77 -11 -20 -79 -138 -151 -262 -71 -124 -138 -238 -147 -255
-9 -16 -59 -102 -110 -190 -51 -88 -102 -176 -112 -195 -11 -19 -44 -75 -73
-125 -66 -113 -98 -176 -92 -181 10 -10 391 -4 430 7 51 13 137 68 177 111 24
27 300 491 405 683 16 28 37 63 48 78 23 33 28 100 9 119 -9 9 -54 13 -154 15
-77 1 -145 6 -150 11 -16 16 -1 45 34 68 149 98 548 349 584 367 23 12 67 16
195 17 217 2 269 1 301 -6 31 -6 53 -51 43 -86 -4 -13 -51 -97 -103 -188 -53
-91 -103 -178 -111 -195 -9 -16 -19 -31 -23 -33 -5 -2 -8 -7 -8 -12 0 -10
-183 -328 -200 -347 -5 -7 -10 -14 -10 -16 0 -3 -20 -40 -45 -83 -47 -83 -54
-117 -31 -150 14 -18 32 -19 396 -22 327 -2 391 0 437 13 117 34 183 97 284
272 118 206 122 215 90 254 l-18 23 -384 1 c-211 0 -390 4 -396 8 -23 15 -14
54 18 81 17 14 38 27 47 27 9 1 305 3 657 4 700 2 676 0 770 62 46 30 109 95
129 132 7 14 37 67 65 116 51 87 66 113 118 202 22 38 23 42 6 47 -10 3 -622
5 -1361 5 l-1342 0 -14 -22z"/>
</g>
</svg>
