<?xml version="1.0" standalone="no"?>
<!DOCTYPE svg PUBLIC "-//W3C//DTD SVG 20010904//EN"
 "http://www.w3.org/TR/2001/REC-SVG-20010904/DTD/svg10.dtd">
<svg version="1.0" xmlns="http://www.w3.org/2000/svg"
 width="1000.000000pt" height="1000.000000pt" viewBox="0 0 1000.000000 1000.000000"
 preserveAspectRatio="xMidYMid meet">
<metadata>
Created by potrace 1.14, written by Peter Selinger 2001-2017
</metadata>
<g transform="translate(0.000000,1000.000000) scale(0.100000,-0.100000)"
fill="#000000" stroke="none">
<path d="M0 5000 l0 -5000 5000 0 5000 0 0 5000 0 5000 -5000 0 -5000 0 0
-5000z m2610 1260 l0 -280 -560 0 -560 0 0 -350 0 -350 530 0 530 0 0 -275 0
-275 -530 0 -530 0 0 -630 0 -630 -300 0 -300 0 0 1535 0 1535 860 0 860 0 0
-280z m870 -771 l0 -1051 45 40 c93 82 224 122 396 122 l99 0 0 -319 0 -318
-91 -8 c-198 -15 -332 -79 -422 -202 -42 -58 -98 -168 -122 -240 l-17 -53
-234 0 -234 0 0 1540 0 1540 290 0 290 0 0 -1051z m2240 1046 c0 -4 848 -2855
906 -3047 5 -17 -14 -18 -298 -18 l-304 0 -94 355 -95 355 -462 0 -462 0 -15
-52 c-8 -29 -47 -174 -86 -323 -39 -148 -76 -285 -81 -302 l-11 -33 -299 0
c-164 0 -299 2 -299 5 0 3 201 680 446 1503 246 823 451 1512 456 1530 l9 32
344 0 c190 0 345 -2 345 -5z m2275 -863 c439 -952 481 -1047 528 -1185 l32
-94 0 1071 0 1071 275 0 275 0 3 -1532 2 -1533 -323 0 -322 0 -417 883 c-434
917 -466 987 -529 1152 l-38 100 -1 -1067 0 -1068 -275 0 -275 0 0 1535 0
1535 333 0 332 0 400 -868z"/>
<path d="M5371 5978 c-6 -45 -49 -249 -72 -343 -27 -105 -231 -871 -245 -917
-5 -17 15 -18 315 -18 218 0 321 3 321 11 0 5 -47 186 -105 400 -118 437 -178
675 -199 794 -8 44 -15 77 -15 73z"/>
</g>
</svg>
